{
    "asset" : {
        "generator" : "Khronos glTF Blender I/O v1.0.5",
        "version" : "2.0"
    },
    "scene" : 0,
    "scenes" : [
        {
            "name" : "Scene",
            "nodes" : [
                0,
                1,
                2
            ]
        }
    ],
    "nodes" : [
        {
            "mesh" : 0,
            "name" : "Cube",
            "rotation" : [
                0,
                0.7071067094802856,
                -0.7071068286895752,
                -3.0908616110991716e-08
            ]
        },
        {
            "mesh" : 1,
            "name" : "Cube.004",
            "rotation" : [
                0.7071068286895752,
                0,
                0,
                0.7071067094802856
            ]
        },
        {
            "mesh" : 2,
            "name" : "Cube.005",
            "rotation" : [
                0.7071068286895752,
                0,
                0,
                0.7071067094802856
            ]
        }
    ],
    "materials" : [
        {
            "doubleSided" : true,
            "emissiveFactor" : [
                0,
                0,
                0
            ],
            "name" : "Material.001",
            "pbrMetallicRoughness" : {
                "baseColorFactor" : [
                    0.800000011920929,
                    0.800000011920929,
                    0.800000011920929,
                    1
                ],
                "metallicFactor" : 0,
                "roughnessFactor" : 0.4000000059604645
            }
        },
        {
            "doubleSided" : true,
            "emissiveFactor" : [
                0,
                0,
                0
            ],
            "name" : "Material.002",
            "pbrMetallicRoughness" : {
                "baseColorFactor" : [
                    0.800000011920929,
                    0.800000011920929,
                    0.800000011920929,
                    1
                ],
                "metallicFactor" : 0,
                "roughnessFactor" : 0.4000000059604645
            }
        }
    ],
    "meshes" : [
        {
            "name" : "Cube.001",
            "primitives" : [
                {
                    "attributes" : {
                        "POSITION" : 0,
                        "NORMAL" : 1,
                        "TEXCOORD_0" : 2,
                        "COLOR_0" : 3
                    },
                    "indices" : 4,
                    "material" : 0
                }
            ]
        },
        {
            "name" : "Cube.005",
            "primitives" : [
                {
                    "attributes" : {
                        "POSITION" : 5,
                        "NORMAL" : 6,
                        "TEXCOORD_0" : 7,
                        "COLOR_0" : 8
                    },
                    "indices" : 9,
                    "material" : 1
                }
            ]
        },
        {
            "name" : "Cube.006",
            "primitives" : [
                {
                    "attributes" : {
                        "POSITION" : 10,
                        "NORMAL" : 11,
                        "TEXCOORD_0" : 12,
                        "COLOR_0" : 13
                    },
                    "indices" : 14,
                    "material" : 1
                }
            ]
        }
    ],
    "accessors" : [
        {
            "bufferView" : 0,
            "componentType" : 5126,
            "count" : 1560,
            "max" : [
                6.937873363494873,
                12.15716552734375,
                1.1664067506790161
            ],
            "min" : [
                -6.937873363494873,
                -4.858469009399414,
                -1.4976364374160767
            ],
            "type" : "VEC3"
        },
        {
            "bufferView" : 1,
            "componentType" : 5126,
            "count" : 1560,
            "type" : "VEC3"
        },
        {
            "bufferView" : 2,
            "componentType" : 5126,
            "count" : 1560,
            "type" : "VEC2"
        },
        {
            "bufferView" : 3,
            "componentType" : 5126,
            "count" : 1560,
            "type" : "VEC4"
        },
        {
            "bufferView" : 4,
            "componentType" : 5123,
            "count" : 1560,
            "type" : "SCALAR"
        },
        {
            "bufferView" : 5,
            "componentType" : 5126,
            "count" : 460,
            "max" : [
                2.3646984100341797,
                -2.6701955795288086,
                1.234168291091919
            ],
            "min" : [
                -2.3646984100341797,
                -6.213627815246582,
                -1.0367611646652222
            ],
            "type" : "VEC3"
        },
        {
            "bufferView" : 6,
            "componentType" : 5126,
            "count" : 460,
            "type" : "VEC3"
        },
        {
            "bufferView" : 7,
            "componentType" : 5126,
            "count" : 460,
            "type" : "VEC2"
        },
        {
            "bufferView" : 8,
            "componentType" : 5126,
            "count" : 460,
            "type" : "VEC4"
        },
        {
            "bufferView" : 9,
            "componentType" : 5123,
            "count" : 972,
            "type" : "SCALAR"
        },
        {
            "bufferView" : 10,
            "componentType" : 5126,
            "count" : 290,
            "max" : [
                1.831057071685791,
                7.85679817199707,
                0.667323648929596
            ],
            "min" : [
                -1.831057071685791,
                3.766206741333008,
                0.11048196256160736
            ],
            "type" : "VEC3"
        },
        {
            "bufferView" : 11,
            "componentType" : 5126,
            "count" : 290,
            "type" : "VEC3"
        },
        {
            "bufferView" : 12,
            "componentType" : 5126,
            "count" : 290,
            "type" : "VEC2"
        },
        {
            "bufferView" : 13,
            "componentType" : 5126,
            "count" : 290,
            "type" : "VEC4"
        },
        {
            "bufferView" : 14,
            "componentType" : 5123,
            "count" : 468,
            "type" : "SCALAR"
        }
    ],
    "bufferViews" : [
        {
            "buffer" : 0,
            "byteLength" : 18720,
            "byteOffset" : 0
        },
        {
            "buffer" : 0,
            "byteLength" : 18720,
            "byteOffset" : 18720
        },
        {
            "buffer" : 0,
            "byteLength" : 12480,
            "byteOffset" : 37440
        },
        {
            "buffer" : 0,
            "byteLength" : 24960,
            "byteOffset" : 49920
        },
        {
            "buffer" : 0,
            "byteLength" : 3120,
            "byteOffset" : 74880
        },
        {
            "buffer" : 0,
            "byteLength" : 5520,
            "byteOffset" : 78000
        },
        {
            "buffer" : 0,
            "byteLength" : 5520,
            "byteOffset" : 83520
        },
        {
            "buffer" : 0,
            "byteLength" : 3680,
            "byteOffset" : 89040
        },
        {
            "buffer" : 0,
            "byteLength" : 7360,
            "byteOffset" : 92720
        },
        {
            "buffer" : 0,
            "byteLength" : 1944,
            "byteOffset" : 100080
        },
        {
            "buffer" : 0,
            "byteLength" : 3480,
            "byteOffset" : 102024
        },
        {
            "buffer" : 0,
            "byteLength" : 3480,
            "byteOffset" : 105504
        },
        {
            "buffer" : 0,
            "byteLength" : 2320,
            "byteOffset" : 108984
        },
        {
            "buffer" : 0,
            "byteLength" : 4640,
            "byteOffset" : 111304
        },
        {
            "buffer" : 0,
            "byteLength" : 936,
            "byteOffset" : 115944
        }
    ],
    "buffers" : [
        {
            "byteLength" : 116880,
            "uri" : "sp3.glb.bin"
        }
    ]
}
