{
    "asset" : {
        "generator" : "Khronos glTF Blender I/O v1.0.5",
        "version" : "2.0"
    },
    "scene" : 0,
    "scenes" : [
        {
            "name" : "Scene",
            "nodes" : [
                0,
                1,
                2,
                3,
                4,
                5
            ]
        }
    ],
    "nodes" : [
        {
            "mesh" : 0,
            "name" : "Ship",
            "rotation" : [
                0,
                -0.7071067094802856,
                -0.7071068286895752,
                0
            ],
            "scale" : [
                -1,
                -1.0000001192092896,
                -1.0000001192092896
            ]
        },
        {
            "name" : "Light",
            "rotation" : [
                0.5232754945755005,
                0.34203392267227173,
                -0.7269423604011536,
                0.284166157245636
            ],
            "translation" : [
                4.076245307922363,
                5.903862476348877,
                -1.0054532289505005
            ]
        },
        {
            "name" : "Camera",
            "rotation" : [
                0.8937963247299194,
                0.09062855690717697,
                -0.3857799172401428,
                0.20997287333011627
            ],
            "translation" : [
                7.358891487121582,
                4.958308696746826,
                6.925792217254639
            ]
        },
        {
            "mesh" : 1,
            "name" : "Thrusters",
            "rotation" : [
                0,
                -0.7071067094802856,
                -0.7071068286895752,
                0
            ],
            "scale" : [
                -1,
                -1.0000001192092896,
                -1.0000001192092896
            ]
        },
        {
            "mesh" : 2,
            "name" : "Guns",
            "rotation" : [
                0,
                -0.7071067094802856,
                -0.7071068286895752,
                0
            ],
            "scale" : [
                -1,
                -1.0000001192092896,
                -1.0000001192092896
            ]
        },
        {
            "mesh" : 3,
            "name" : "Thrusters.001",
            "rotation" : [
                0,
                -0.7071067094802856,
                -0.7071068286895752,
                0
            ],
            "scale" : [
                -1,
                -1.0000001192092896,
                -1.0000001192092896
            ]
        }
    ],
    "materials" : [
        {
            "doubleSided" : true,
            "emissiveFactor" : [
                0,
                0,
                0
            ],
            "name" : "Material.001",
            "pbrMetallicRoughness" : {
                "baseColorFactor" : [
                    0.800000011920929,
                    0.800000011920929,
                    0.800000011920929,
                    1
                ],
                "metallicFactor" : 0,
                "roughnessFactor" : 0.4000000059604645
            }
        }
    ],
    "meshes" : [
        {
            "name" : "Cube.001",
            "primitives" : [
                {
                    "attributes" : {
                        "POSITION" : 0,
                        "NORMAL" : 1,
                        "TEXCOORD_0" : 2
                    },
                    "indices" : 3,
                    "material" : 0
                }
            ]
        },
        {
            "name" : "Cube.002",
            "primitives" : [
                {
                    "attributes" : {
                        "POSITION" : 4,
                        "NORMAL" : 5,
                        "TEXCOORD_0" : 6
                    },
                    "indices" : 7,
                    "material" : 0
                }
            ]
        },
        {
            "name" : "Cube.003",
            "primitives" : [
                {
                    "attributes" : {
                        "POSITION" : 8,
                        "NORMAL" : 9,
                        "TEXCOORD_0" : 10
                    },
                    "indices" : 11,
                    "material" : 0
                }
            ]
        },
        {
            "name" : "Cube.004",
            "primitives" : [
                {
                    "attributes" : {
                        "POSITION" : 12,
                        "NORMAL" : 13,
                        "TEXCOORD_0" : 14
                    },
                    "indices" : 15,
                    "material" : 0
                }
            ]
        }
    ],
    "accessors" : [
        {
            "bufferView" : 0,
            "componentType" : 5126,
            "count" : 842,
            "max" : [
                6.937873363494873,
                12.15716552734375,
                1.1664067506790161
            ],
            "min" : [
                -6.937873363494873,
                -4.858469009399414,
                -1.4976364374160767
            ],
            "type" : "VEC3"
        },
        {
            "bufferView" : 1,
            "componentType" : 5126,
            "count" : 842,
            "type" : "VEC3"
        },
        {
            "bufferView" : 2,
            "componentType" : 5126,
            "count" : 842,
            "type" : "VEC2"
        },
        {
            "bufferView" : 3,
            "componentType" : 5123,
            "count" : 1560,
            "type" : "SCALAR"
        },
        {
            "bufferView" : 4,
            "componentType" : 5126,
            "count" : 146,
            "max" : [
                0.7634152770042419,
                -2.6701955795288086,
                1.234168291091919
            ],
            "min" : [
                -0.7634150981903076,
                -5.925909996032715,
                -0.2926618754863739
            ],
            "type" : "VEC3"
        },
        {
            "bufferView" : 5,
            "componentType" : 5126,
            "count" : 146,
            "type" : "VEC3"
        },
        {
            "bufferView" : 6,
            "componentType" : 5126,
            "count" : 146,
            "type" : "VEC2"
        },
        {
            "bufferView" : 7,
            "componentType" : 5123,
            "count" : 324,
            "type" : "SCALAR"
        },
        {
            "bufferView" : 8,
            "componentType" : 5126,
            "count" : 290,
            "max" : [
                1.831057071685791,
                7.85679817199707,
                0.667323648929596
            ],
            "min" : [
                -1.831057071685791,
                3.766206741333008,
                0.11048196256160736
            ],
            "type" : "VEC3"
        },
        {
            "bufferView" : 9,
            "componentType" : 5126,
            "count" : 290,
            "type" : "VEC3"
        },
        {
            "bufferView" : 10,
            "componentType" : 5126,
            "count" : 290,
            "type" : "VEC2"
        },
        {
            "bufferView" : 11,
            "componentType" : 5123,
            "count" : 468,
            "type" : "SCALAR"
        },
        {
            "bufferView" : 12,
            "componentType" : 5126,
            "count" : 302,
            "max" : [
                2.2737314701080322,
                -2.985342264175415,
                0.4652577340602875
            ],
            "min" : [
                -2.2737314701080322,
                -6.2410569190979,
                -1.0568033456802368
            ],
            "type" : "VEC3"
        },
        {
            "bufferView" : 13,
            "componentType" : 5126,
            "count" : 302,
            "type" : "VEC3"
        },
        {
            "bufferView" : 14,
            "componentType" : 5126,
            "count" : 302,
            "type" : "VEC2"
        },
        {
            "bufferView" : 15,
            "componentType" : 5123,
            "count" : 648,
            "type" : "SCALAR"
        }
    ],
    "bufferViews" : [
        {
            "buffer" : 0,
            "byteLength" : 10104,
            "byteOffset" : 0
        },
        {
            "buffer" : 0,
            "byteLength" : 10104,
            "byteOffset" : 10104
        },
        {
            "buffer" : 0,
            "byteLength" : 6736,
            "byteOffset" : 20208
        },
        {
            "buffer" : 0,
            "byteLength" : 3120,
            "byteOffset" : 26944
        },
        {
            "buffer" : 0,
            "byteLength" : 1752,
            "byteOffset" : 30064
        },
        {
            "buffer" : 0,
            "byteLength" : 1752,
            "byteOffset" : 31816
        },
        {
            "buffer" : 0,
            "byteLength" : 1168,
            "byteOffset" : 33568
        },
        {
            "buffer" : 0,
            "byteLength" : 648,
            "byteOffset" : 34736
        },
        {
            "buffer" : 0,
            "byteLength" : 3480,
            "byteOffset" : 35384
        },
        {
            "buffer" : 0,
            "byteLength" : 3480,
            "byteOffset" : 38864
        },
        {
            "buffer" : 0,
            "byteLength" : 2320,
            "byteOffset" : 42344
        },
        {
            "buffer" : 0,
            "byteLength" : 936,
            "byteOffset" : 44664
        },
        {
            "buffer" : 0,
            "byteLength" : 3624,
            "byteOffset" : 45600
        },
        {
            "buffer" : 0,
            "byteLength" : 3624,
            "byteOffset" : 49224
        },
        {
            "buffer" : 0,
            "byteLength" : 2416,
            "byteOffset" : 52848
        },
        {
            "buffer" : 0,
            "byteLength" : 1296,
            "byteOffset" : 55264
        }
    ],
    "buffers" : [
        {
            "byteLength" : 56560,
            "uri" : "sp3.bin"
        }
    ]
}
